HIERARCHY
ROOT hip
{
  OFFSET 0 0 0
  CHANNELS 6 Xposition Yposition Zposition Zrotation Yrotation Xrotation
  JOINT abdomen
  {
    OFFSET 0 20.6881 -0.73152
    CHANNELS 3 Zrotation Xrotation Yrotation
    JOINT chest
    {
      OFFSET 0 11.7043 -0.48768
      CHANNELS 3 Zrotation Xrotation Yrotation
      JOINT neck
      {
        OFFSET 0 22.1894 -2.19456
        CHANNELS 3 Zrotation Xrotation Yrotation
        JOINT head
        {
          OFFSET -0.24384 7.07133 1.2192
          CHANNELS 3 Zrotation Xrotation Yrotation
          JOINT leftEye
          {
            OFFSET 4.14528 8.04674 8.04672
            CHANNELS 3 Zrotation Xrotation Yrotation
            End Site
            {
              OFFSET 1 0 0
            }
          }
          JOINT rightEye
          {
            OFFSET -3.6576 8.04674 8.04672
            CHANNELS 3 Zrotation Xrotation Yrotation
            End Site
            {
              OFFSET 1 0 0
            }
          }
        }
      }
      JOINT rCollar
      {
        OFFSET -2.68224 19.2634 -4.8768
        CHANNELS 3 Zrotation Xrotation Yrotation
        JOINT rShldr
        {
          OFFSET -8.77824 -1.95073 1.46304
          CHANNELS 3 Zrotation Xrotation Yrotation
          JOINT rForeArm
          {
            OFFSET -28.1742 -1.7115 0.48768
            CHANNELS 3 Zrotation Xrotation Yrotation
            JOINT rHand
            {
              OFFSET -22.5879 0.773209 7.07136
              CHANNELS 3 Zrotation Xrotation Yrotation
              JOINT rThumb1
              {
                OFFSET -1.2192 -0.487915 3.41376
                CHANNELS 3 Zrotation Xrotation Yrotation
                JOINT rThumb2
                {
                  OFFSET -3.37035 -0.52449 3.41376
                  CHANNELS 3 Zrotation Xrotation Yrotation
                  End Site
                  {
                    OFFSET -1.78271 -1.18214 1.43049
                  }
                }
              }
              JOINT rIndex1
              {
                OFFSET -7.75947 0.938293 5.60832
                CHANNELS 3 Zrotation Xrotation Yrotation
                JOINT rIndex2
                {
                  OFFSET -2.54057 -0.884171 1.56538
                  CHANNELS 3 Zrotation Xrotation Yrotation
                  End Site
                  {
                    OFFSET -1.62519 -0.234802 1.16502
                  }
                }
              }
              JOINT rMid1
              {
                OFFSET -8.24714 1.18213 3.41376
                CHANNELS 3 Zrotation Xrotation Yrotation
                JOINT rMid2
                {
                  OFFSET -3.10165 -0.590103 1.0647
                  CHANNELS 3 Zrotation Xrotation Yrotation
                  End Site
                  {
                    OFFSET -2.48547 -0.328903 0.83742
                  }
                }
              }
              JOINT rRing1
              {
                OFFSET -8.82822 0.546677 1.51678
                CHANNELS 3 Zrotation Xrotation Yrotation
                JOINT rRing2
                {
                  OFFSET -2.60934 -0.819778 -0.0198488
                  CHANNELS 3 Zrotation Xrotation Yrotation
                  End Site
                  {
                    OFFSET -2.33842 -0.294052 0.168128
                  }
                }
              }
              JOINT rPinky1
              {
                OFFSET -8.27202 -0.0477905 -0.4584
                CHANNELS 3 Zrotation Xrotation Yrotation
                JOINT rPinky2
                {
                  OFFSET -1.82734 -0.647385 -0.700984
                  CHANNELS 3 Zrotation Xrotation Yrotation
                  End Site
                  {
                    OFFSET -1.69225 -0.51767 -0.607171
                  }
                }
              }
            }
          }
        }
      }
      JOINT lCollar
      {
        OFFSET 2.68224 19.2634 -4.8768
        CHANNELS 3 Zrotation Xrotation Yrotation
        JOINT lShldr
        {
          OFFSET 8.77824 -1.95073 1.46304
          CHANNELS 3 Zrotation Xrotation Yrotation
          JOINT lForeArm
          {
            OFFSET 28.1742 -1.7115 0.48768
            CHANNELS 3 Zrotation Xrotation Yrotation
            JOINT lHand
            {
              OFFSET 22.5879 0.773209 7.07136
              CHANNELS 3 Zrotation Xrotation Yrotation
              JOINT lThumb1
              {
                OFFSET 1.2192 -0.487915 3.41376
                CHANNELS 3 Zrotation Xrotation Yrotation
                JOINT lThumb2
                {
                  OFFSET 3.37035 -0.52449 3.41376
                  CHANNELS 3 Zrotation Xrotation Yrotation
                  End Site
                  {
                    OFFSET 1.78271 -1.18214 1.43049
                  }
                }
              }
              JOINT lIndex1
              {
                OFFSET 7.75947 0.938293 5.60832
                CHANNELS 3 Zrotation Xrotation Yrotation
                JOINT lIndex2
                {
                  OFFSET 2.54057 -0.884171 1.56538
                  CHANNELS 3 Zrotation Xrotation Yrotation
                  End Site
                  {
                    OFFSET 1.62519 -0.234802 1.16502
                  }
                }
              }
              JOINT lMid1
              {
                OFFSET 8.24714 1.18213 3.41376
                CHANNELS 3 Zrotation Xrotation Yrotation
                JOINT lMid2
                {
                  OFFSET 3.10165 -0.590103 1.0647
                  CHANNELS 3 Zrotation Xrotation Yrotation
                  End Site
                  {
                    OFFSET 2.48547 -0.328903 0.83742
                  }
                }
              }
              JOINT lRing1
              {
                OFFSET 8.82822 0.546677 1.51678
                CHANNELS 3 Zrotation Xrotation Yrotation
                JOINT lRing2
                {
                  OFFSET 2.60934 -0.819778 -0.0198488
                  CHANNELS 3 Zrotation Xrotation Yrotation
                  End Site
                  {
                    OFFSET 2.33842 -0.294052 0.168128
                  }
                }
              }
              JOINT lPinky1
              {
                OFFSET 8.27202 -0.0477905 -0.4584
                CHANNELS 3 Zrotation Xrotation Yrotation
                JOINT lPinky2
                {
                  OFFSET 1.82734 -0.647385 -0.700984
                  CHANNELS 3 Zrotation Xrotation Yrotation
                  End Site
                  {
                    OFFSET 1.69225 -0.51767 -0.607171
                  }
                }
              }
            }
          }
        }
      }
    }
  }
  JOINT rButtock
  {
    OFFSET -8.77824 4.35084 1.2192
    CHANNELS 3 Zrotation Xrotation Yrotation
    JOINT rThigh
    {
      OFFSET 0 -1.70687 -2.19456
      CHANNELS 3 Zrotation Xrotation Yrotation
      JOINT rShin
      {
        OFFSET 0 -36.8199 0.73152
        CHANNELS 3 Zrotation Xrotation Yrotation
        JOINT rFoot
        {
          OFFSET 0.73152 -45.1104 -5.12064
          CHANNELS 3 Zrotation Xrotation Yrotation
          End Site
          {
            OFFSET -1.1221 -3.69964 12.103
          }
        }
      }
    }
  }
  JOINT lButtock
  {
    OFFSET 8.77824 4.35084 1.2192
    CHANNELS 3 Zrotation Xrotation Yrotation
    JOINT lThigh
    {
      OFFSET 0 -1.70687 -2.19456
      CHANNELS 3 Zrotation Xrotation Yrotation
      JOINT lShin
      {
        OFFSET 0 -36.8199 0.73152
        CHANNELS 3 Zrotation Xrotation Yrotation
        JOINT lFoot
        {
          OFFSET -0.73152 -45.1104 -5.12064
          CHANNELS 3 Zrotation Xrotation Yrotation
          End Site
          {
            OFFSET 1.1221 -3.69964 12.103
          }
        }
      }
    }
  }
}
MOTION
Frames:	4
Frame Time:	0.00833333
29.517 59.6894 113.175 0.0 0.0 0.0 3.32097 0.00284074 0.0895566 0.915392 0.0205977 0.158332 6.24616e-14 -7.95139e-16 3.97569e-16 1.87286e-13 3.18055e-15 1.28899e-15 -0.0 0.0 0.0 -0.0 0.0 0.0 3.12092e-14 5.61023e-17 3.47873e-16 6.57328e-13 1.22998e-15 6.16232e-15 1.13298e-11 -3.32328e-12 -6.36111e-14 1.29109e-10 3.5908e-12 9.09639e-13 3.04654e-10 5.75893e-13 1.81928e-12 5.26117e-10 9.95514e-13 3.12569e-12 3.04661e-10 5.74885e-13 1.81292e-12 7.73091 5.47488 0.417314 3.04653e-10 5.75084e-13 1.82246e-12 2.90554 0.965183 0.102902 3.0466e-10 5.75879e-13 1.82166e-12 10.2786 0.731801 0.0259123 3.04646e-10 5.78861e-13 1.83518e-12 2.22167 -0.733487 -0.20892 3.11118e-14 5.55199e-17 -4.96962e-17 6.53446e-13 9.00743e-16 4.77083e-15 1.12412e-11 3.43023e-12 -6.36111e-15 1.2919e-10 -3.18316e-12 8.74653e-13 3.04637e-10 5.36377e-13 1.832e-12 5.26099e-10 9.25541e-13 3.15193e-12 3.04632e-10 5.37116e-13 1.84154e-12 -7.73091 5.47488 -0.417314 3.04638e-10 5.3652e-13 1.82882e-12 -2.90554 0.965183 -0.102902 3.04636e-10 5.36818e-13 1.82802e-12 -10.2786 0.731801 -0.0259123 3.04644e-10 5.37514e-13 1.81928e-12 -2.22167 -0.733487 0.20892 -2.03217e-16 0.0 -3.88251e-19 2.98192 -9.63211 -0.345888 0.00978068 11.8587 0.256998 -0.534961 -2.24122 0.0139448 2.03217e-16 0.0 3.88251e-19 2.06516 -1.93654 -0.0170157 0.00844172 -2.07867 0.0692403 0.456622 4.00041 -0.132163
29.3388 56.4355 109.805 -0.9103 -3.9818 7.6908 3.63773 -0.776931 -0.549539 0.76276 -1.30049 -0.023797 -1.14078 -0.882807 -0.283849 1.73502 0.199315 -0.19701 -0.0 0.0 0.0 -0.0 0.0 0.0 1.65065e-14 -7.22934e-17 7.80502e-15 5.05239 5.15981 13.5675 -17.8352 -15.3796 15.0605 0.0301581 -3.85374 -0.537191 3.78926e-10 -3.00376e-11 -3.12144e-10 6.57678e-10 -4.40731e-11 -5.38445e-10 3.78931e-10 -3.00398e-11 -3.12151e-10 7.73091 5.47488 0.417314 3.78926e-10 -3.00401e-11 -3.12141e-10 2.90554 0.965183 0.102902 3.78932e-10 -3.00398e-11 -3.12142e-10 10.2786 0.731801 0.0259123 3.78919e-10 -3.00369e-11 -3.1213e-10 2.22167 -0.733487 -0.20892 1.63624e-14 -7.41353e-17 7.43113e-15 -9.42137 5.01169 -11.0643 19.9259 -17.6666 -15.1623 -0.00295037 -1.20582 0.169332 1.00742e-10 4.0354e-11 2.73605e-10 1.72578e-10 7.1574e-11 4.73552e-10 1.00731e-10 4.03626e-11 2.73617e-10 -7.73091 5.47488 -0.417314 1.00739e-10 4.03617e-11 2.73604e-10 -2.90554 0.965183 -0.102902 1.00739e-10 4.03556e-11 2.73606e-10 -10.2786 0.731801 -0.0259123 1.00747e-10 4.03553e-11 2.73597e-10 -2.22167 -0.733487 0.20892 -2.03217e-16 0.0 -3.88251e-19 1.02542 -20.1632 -4.466 -0.18433 30.0394 0.499338 0.20359 -9.53754 2.9061 2.03217e-16 0.0 3.88251e-19 4.28432 -13.5648 4.17406 -0.23833 20.5426 -0.240491 0.746766 -4.06741 2.95422
29.3398 56.4372 109.808 -0.8858 -3.9368 7.6693 3.95278 -1.60054 -1.22533 0.591449 -2.69771 -0.216503 -2.35615 -1.81574 -0.584669 3.57425 0.410172 -0.406411 -0.0 0.0 0.0 -0.0 0.0 0.0 -3.89627e-17 -3.3128e-15 1.70862e-14 7.81496 9.64458 28.2273 -27.365 -27.952 34.2926 -0.0172265 -7.92754 -1.11335 4.76515e-10 -3.60095e-11 -6.55596e-10 8.29798e-10 -4.57268e-11 -1.13075e-09 4.76519e-10 -3.6013e-11 -6.55603e-10 7.73091 5.47488 0.417314 4.76516e-10 -3.60139e-11 -6.55593e-10 2.90554 0.965183 0.102902 4.76522e-10 -3.60142e-11 -6.55595e-10 10.2786 0.731801 0.0259123 4.7651e-10 -3.60113e-11 -6.55584e-10 2.22167 -0.733487 -0.20892 -2.34358e-16 -3.31597e-15 1.67352e-14 -17.3053 9.67927 -23.0161 29.8094 -31.9876 -35.7266 0.00169758 -2.48595 0.349354 -1.25297e-10 1.084e-10 5.61075e-10 -2.19276e-10 1.91112e-10 9.71109e-10 -1.25314e-10 1.08418e-10 5.61089e-10 -7.73091 5.47488 -0.417314 -1.25304e-10 1.08416e-10 5.61076e-10 -2.90554 0.965183 -0.102902 -1.25301e-10 1.08403e-10 5.6108e-10 -10.2786 0.731801 -0.0259123 -1.25294e-10 1.08402e-10 5.61073e-10 -2.22167 -0.733487 0.20892 -2.03217e-16 0.0 -3.88251e-19 -2.94534 -31.0517 -9.65562 -0.654998 49.2589 0.955349 1.81799 -17.1807 6.15527 2.03217e-16 0.0 3.88251e-19 8.65792 -25.6326 9.28487 -0.144068 44.454 -0.751427 2.01705 -12.5352 6.35647
29.3375 56.439 109.815 -0.8823 -3.9146 7.6469 4.21904 -2.33539 -1.8291 0.432259 -3.94258 -0.388956 -3.44859 -2.64816 -0.852357 5.20918 0.597916 -0.59106 -0.0 0.0 0.0 -0.0 0.0 0.0 -1.2899e-14 -3.29085e-16 2.27193e-14 8.3842 12.0336 41.6445 -28.6321 -32.4289 54.6804 -0.130104 -11.5571 -1.64121 5.27469e-10 -9.12645e-11 -9.4007e-10 9.208e-10 -1.3421e-10 -1.62159e-09 5.27472e-10 -9.12693e-11 -9.40077e-10 7.73091 5.47488 0.417314 5.27471e-10 -9.12704e-11 -9.40066e-10 2.90554 0.965183 0.102902 5.27477e-10 -9.12712e-11 -9.4007e-10 10.2786 0.731801 0.0259123 5.27465e-10 -9.12684e-11 -9.4006e-10 2.22167 -0.733487 -0.20892 -1.31364e-14 -3.33447e-16 2.23928e-14 -22.7006 12.7913 -34.0188 29.7067 -36.4882 -58.532 0.0125671 -3.61734 0.508897 -3.07048e-10 1.19989e-10 8.17152e-10 -5.34464e-10 2.12871e-10 1.41435e-09 -3.07071e-10 1.20013e-10 8.17168e-10 -7.73091 5.47488 -0.417314 -3.07058e-10 1.20012e-10 8.17155e-10 -2.90554 0.965183 -0.102902 -3.07054e-10 1.19993e-10 8.17161e-10 -10.2786 0.731801 -0.0259123 -3.07046e-10 1.19991e-10 8.17154e-10 -2.22167 -0.733487 0.20892 -2.03217e-16 0.0 -3.88251e-19 -8.67277 -40.319 -15.6821 -1.74477 66.3908 1.98231 4.06137 -23.8796 9.37901 2.03217e-16 0.0 3.88251e-19 14.8081 -35.9583 15.1417 0.829308 65.7729 -1.98394 4.05154 -19.9537 9.69086
